<svg xmlns="http://www.w3.org/2000/svg" xmlns:xlink="http://www.w3.org/1999/xlink" width="500" zoomAndPan="magnify" viewBox="0 0 375 225" height="300" preserveAspectRatio="xMidYMid meet" version="1.0"><defs><g/><clipPath id="0eb694ac82"><path d="M 122 24 L 236 24 L 236 115 L 122 115 Z M 122 24 " clip-rule="nonzero"/></clipPath><clipPath id="a11e52ab36"><path d="M 225.566406 14.402344 L 243.59375 100.984375 L 131.359375 124.351562 L 113.332031 37.769531 Z M 225.566406 14.402344 " clip-rule="nonzero"/></clipPath><clipPath id="faadecf523"><path d="M 225.566406 14.402344 L 243.59375 100.984375 L 131.359375 124.351562 L 113.332031 37.769531 Z M 225.566406 14.402344 " clip-rule="nonzero"/></clipPath><clipPath id="c68ca4d9b2"><path d="M 156 36 L 223 36 L 223 131 L 156 131 Z M 156 36 " clip-rule="nonzero"/></clipPath><clipPath id="9db1582c75"><path d="M 182.464844 34.710938 L 223.921875 48.445312 L 195.425781 134.46875 L 153.96875 120.738281 Z M 182.464844 34.710938 " clip-rule="nonzero"/></clipPath><clipPath id="db794bbdb0"><path d="M 182.464844 34.710938 L 223.921875 48.445312 L 195.425781 134.46875 L 153.96875 120.738281 Z M 182.464844 34.710938 " clip-rule="nonzero"/></clipPath></defs><g clip-path="url(#0eb694ac82)"><g clip-path="url(#a11e52ab36)"><g clip-path="url(#faadecf523)"><path fill="#25242a" d="M 234.246094 56.867188 C 232.972656 52.113281 230.574219 47.730469 228.125 43.433594 C 223.980469 36.09375 218.855469 28.460938 210.875 25.808594 C 204.886719 23.871094 198.351562 25.089844 192.28125 26.851562 C 186.210938 28.609375 180.171875 30.855469 173.886719 30.890625 C 168.945312 30.929688 164.207031 29.582031 159.292969 29.40625 C 154.660156 29.238281 150.035156 30.128906 145.550781 31.347656 C 141.730469 32.351562 137.84375 33.726562 134.769531 36.277344 C 131.949219 38.703125 129.953125 42.019531 128.390625 45.386719 C 125.023438 52.664062 123.132812 60.554688 122.609375 68.582031 C 122.25 74.316406 122.566406 80.261719 124.539062 85.648438 C 127.160156 92.8125 132.421875 98.71875 138.3125 103.574219 C 142.738281 107.179688 147.570312 110.34375 153.042969 112.175781 C 157.988281 113.835938 163.175781 114.308594 168.417969 114.351562 C 179.828125 114.449219 191.460938 112.242188 201.535156 106.960938 C 208.675781 103.210938 214.894531 98.097656 221.113281 92.984375 C 226.726562 88.347656 232.285156 82.101562 233.394531 78.261719 C 235.910156 69.960938 236.730469 68.796875 234.246094 56.867188 Z M 234.246094 56.867188 " fill-opacity="1" fill-rule="nonzero"/></g></g></g><g clip-path="url(#c68ca4d9b2)"><g clip-path="url(#9db1582c75)"><g clip-path="url(#db794bbdb0)"><path fill="#f5efd7" d="M 185.988281 52.804688 C 186.921875 50.769531 187.976562 48.792969 188.996094 46.804688 C 189.476562 45.867188 189.960938 44.929688 190.40625 43.976562 C 190.957031 42.785156 191.570312 41.535156 191.804688 40.234375 C 191.898438 39.703125 192.261719 39.246094 192.855469 39.285156 C 193.347656 39.316406 193.898438 39.800781 193.804688 40.335938 C 193.359375 42.824219 192.089844 45.128906 190.953125 47.359375 C 189.929688 49.378906 188.839844 51.375 187.894531 53.433594 C 187.671875 53.921875 187.191406 54.261719 186.628906 54.070312 C 186.152344 53.90625 185.761719 53.300781 185.988281 52.804688 Z M 194.089844 56.261719 C 196.496094 52.316406 198.492188 48.121094 200.019531 43.757812 C 200.449219 42.539062 198.546875 41.910156 198.121094 43.128906 C 196.644531 47.332031 194.738281 51.347656 192.421875 55.148438 C 191.75 56.25 193.417969 57.367188 194.089844 56.261719 Z M 205.253906 45.496094 C 203.09375 49.378906 201.050781 53.367188 198.664062 57.113281 C 196.820312 60.007812 194.582031 63.070312 191.304688 64.417969 C 190.171875 64.886719 188.933594 65.125 187.703125 65.074219 C 185.964844 64.996094 184.671875 63.765625 183.636719 62.457031 C 181.339844 59.546875 181.792969 55.207031 182.386719 51.792969 C 183.226562 47.027344 185.144531 42.476562 187.453125 38.25 C 188.0625 37.125 186.402344 36.003906 185.785156 37.136719 C 183.492188 41.34375 181.566406 45.804688 180.613281 50.515625 C 179.851562 54.273438 179.207031 59.140625 181.316406 62.605469 C 182.054688 63.820312 183.070312 65.039062 184.277344 65.902344 C 181.625 71.867188 179.050781 77.878906 176.160156 83.730469 C 174.148438 82.871094 171.964844 82.835938 170.210938 84.363281 C 169.417969 85.054688 168.988281 85.945312 168.566406 86.867188 C 165.9375 92.617188 163.316406 98.367188 160.691406 104.113281 C 159.601562 106.496094 158.515625 108.878906 157.425781 111.261719 C 157 112.195312 156.644531 113.113281 156.679688 114.175781 C 156.726562 115.4375 157.226562 116.695312 158.109375 117.613281 C 158.769531 118.296875 159.578125 118.691406 160.421875 119.078125 C 161.050781 119.367188 161.675781 119.648438 162.300781 119.933594 C 164.773438 120.984375 167.746094 119.96875 168.980469 117.558594 C 169.234375 117.0625 169.457031 116.546875 169.6875 116.035156 C 170.875 113.4375 172.0625 110.832031 173.25 108.234375 C 175.757812 102.75 178.277344 97.269531 180.765625 91.78125 C 181.386719 90.410156 181.511719 88.929688 180.957031 87.503906 C 180.375 86.015625 179.246094 85.214844 177.96875 84.566406 C 180.835938 78.734375 183.410156 72.761719 186.050781 66.824219 C 187.394531 67.246094 188.949219 67.117188 190.289062 66.835938 C 193.808594 66.101562 196.417969 63.554688 198.535156 60.804688 C 200.140625 58.71875 201.449219 56.429688 202.730469 54.136719 C 204.128906 51.625 205.523438 49.113281 206.921875 46.609375 C 207.542969 45.488281 205.878906 44.367188 205.253906 45.496094 Z M 221.003906 56.8125 C 219.996094 59.273438 218.777344 61.660156 217.644531 64.074219 C 215.589844 68.453125 213.53125 72.832031 211.476562 77.207031 C 209.785156 80.804688 207.964844 84.359375 206.40625 88.015625 C 205.078125 91.144531 203.785156 94.289062 202.472656 97.429688 C 202.582031 97.582031 202.683594 97.738281 202.769531 97.917969 C 203.40625 99.210938 203.28125 100.609375 202.703125 101.882812 C 200.195312 107.367188 197.683594 112.859375 195.183594 118.351562 C 193.957031 121.035156 192.730469 123.714844 191.507812 126.402344 C 191.269531 126.921875 191.039062 127.445312 190.792969 127.960938 C 189.777344 130.121094 187.359375 131.207031 185.097656 130.269531 C 184.484375 129.988281 183.875 129.707031 183.257812 129.429688 C 182.558594 129.105469 181.773438 128.824219 181.164062 128.335938 C 180.160156 127.523438 179.558594 126.3125 179.53125 125.019531 C 179.511719 124.082031 179.851562 123.308594 180.226562 122.492188 C 181.316406 120.101562 182.40625 117.71875 183.496094 115.332031 C 186.171875 109.46875 188.847656 103.605469 191.523438 97.742188 C 191.796875 97.152344 192.042969 96.480469 192.421875 95.957031 C 193.183594 94.910156 194.371094 94.253906 195.660156 94.164062 C 195.882812 94.148438 196.09375 94.15625 196.304688 94.179688 C 196.90625 92.765625 197.507812 91.351562 198.113281 89.9375 C 197.1875 89.539062 196.261719 89.136719 195.335938 88.742188 C 194.859375 88.539062 194.496094 88.011719 194.699219 87.476562 C 196.167969 83.667969 197.644531 79.859375 199.277344 76.113281 C 202.136719 69.550781 205.484375 63.121094 210.007812 57.535156 C 211.957031 55.128906 214.101562 52.601562 216.910156 51.171875 C 218.039062 50.601562 219.96875 49.777344 221.246094 50.25 C 221.996094 50.527344 222.1875 51.164062 222.039062 51.714844 C 222.054688 51.75 222.078125 51.78125 222.097656 51.8125 C 222.3125 52.289062 222.164062 52.78125 222.078125 53.273438 C 221.851562 54.488281 221.472656 55.667969 221.003906 56.8125 Z M 219.992188 53.519531 C 220.070312 53.199219 220.109375 52.871094 220.179688 52.554688 C 220.175781 52.585938 220.367188 52.851562 220.226562 52.578125 C 220.148438 52.429688 220.050781 52.292969 219.960938 52.15625 C 219.421875 52.265625 218.710938 52.5625 218.476562 52.660156 C 217.871094 52.910156 217.285156 53.222656 216.746094 53.585938 C 215.59375 54.363281 214.582031 55.351562 213.644531 56.367188 C 205.59375 65.066406 201.140625 76.34375 196.933594 87.253906 C 197.867188 87.65625 198.804688 88.0625 199.734375 88.464844 C 200.199219 88.664062 200.597656 89.199219 200.371094 89.730469 C 199.65625 91.410156 198.941406 93.089844 198.222656 94.769531 C 198.234375 94.773438 198.246094 94.777344 198.253906 94.785156 C 199.125 95.179688 200.066406 95.535156 200.898438 96.027344 C 201.445312 94.710938 202 93.398438 202.546875 92.082031 C 204.824219 86.636719 207.34375 81.320312 209.855469 75.976562 C 211.890625 71.648438 213.925781 67.320312 215.957031 62.992188 C 216.929688 60.921875 217.949219 58.867188 218.859375 56.769531 C 219.3125 55.707031 219.722656 54.632812 219.992188 53.519531 Z M 219.992188 53.519531 " fill-opacity="1" fill-rule="nonzero"/></g></g></g><g fill="#25242a" fill-opacity="1"><g transform="translate(1.62838, 187.682525)"><g><path d="M 41.03125 -18.453125 C 41.957031 -14.828125 41.675781 -11.582031 40.1875 -8.71875 C 38.707031 -5.863281 36.285156 -3.875 32.921875 -2.75 C 29.140625 -1.425781 24.597656 -0.660156 19.296875 -0.453125 C 16.890625 -0.359375 14.753906 -0.910156 12.890625 -2.109375 C 11.035156 -3.304688 9.546875 -4.515625 8.421875 -5.734375 C 7.191406 -7.117188 6.4375 -8.601562 6.15625 -10.1875 C 5.875 -11.769531 6.117188 -13.195312 6.890625 -14.46875 C 8.117188 -16.613281 10.132812 -17.6875 12.9375 -17.6875 C 13.707031 -17.6875 14.472656 -17.609375 15.234375 -17.453125 C 15.535156 -17.347656 15.863281 -17.257812 16.21875 -17.1875 C 16.582031 -17.113281 16.914062 -17.023438 17.21875 -16.921875 C 18.601562 -16.515625 20.007812 -16.179688 21.4375 -15.921875 C 22.863281 -15.671875 24.367188 -15.773438 25.953125 -16.234375 L 28.484375 -17 L 28.09375 -17.84375 C 27.4375 -19.425781 26.492188 -20.585938 25.265625 -21.328125 C 24.035156 -22.066406 22.757812 -22.640625 21.4375 -23.046875 C 16.175781 -24.628906 11.429688 -27.5625 7.203125 -31.84375 C 4.085938 -35.007812 2.628906 -38.554688 2.828125 -42.484375 C 3.035156 -46.367188 4.796875 -49.664062 8.109375 -52.375 C 14.441406 -57.570312 21.613281 -59.226562 29.625 -57.34375 C 33.195312 -56.53125 35.851562 -54.71875 37.59375 -51.90625 C 38.257812 -50.726562 38.640625 -49.453125 38.734375 -48.078125 C 38.734375 -47.671875 38.679688 -47.210938 38.578125 -46.703125 C 38.484375 -46.191406 38.253906 -45.804688 37.890625 -45.546875 C 37.285156 -45.085938 36.34375 -45.113281 35.0625 -45.625 C 33.53125 -46.238281 31.664062 -46.8125 29.46875 -47.34375 C 27.28125 -47.882812 24.960938 -47.875 22.515625 -47.3125 C 21.335938 -47.0625 20.195312 -46.679688 19.09375 -46.171875 C 18 -45.660156 16.992188 -45.125 16.078125 -44.5625 C 15.003906 -43.945312 14.46875 -43.15625 14.46875 -42.1875 C 14.46875 -41.21875 14.976562 -40.398438 16 -39.734375 L 17.6875 -38.734375 C 19.0625 -37.921875 20.453125 -37.117188 21.859375 -36.328125 C 23.265625 -35.535156 24.707031 -34.832031 26.1875 -34.21875 C 34.351562 -30.957031 39.300781 -25.703125 41.03125 -18.453125 Z M 41.03125 -18.453125 "/></g></g></g><g fill="#25242a" fill-opacity="1"><g transform="translate(46.035966, 187.682525)"><g><path d="M 39.578125 -19.75 C 39.941406 -17.914062 39.816406 -16.164062 39.203125 -14.5 C 38.585938 -12.84375 37.691406 -11.273438 36.515625 -9.796875 C 35.441406 -8.472656 34.191406 -7.898438 32.765625 -8.078125 C 31.335938 -8.253906 30.316406 -9.160156 29.703125 -10.796875 C 29.347656 -11.710938 29.082031 -12.691406 28.90625 -13.734375 C 28.726562 -14.785156 28.5625 -15.820312 28.40625 -16.84375 C 28.195312 -18.21875 28.03125 -19.59375 27.90625 -20.96875 C 27.78125 -22.351562 27.613281 -23.734375 27.40625 -25.109375 C 27.300781 -25.722656 27.109375 -26.335938 26.828125 -26.953125 C 26.546875 -27.566406 26.253906 -28.28125 25.953125 -29.09375 C 24.210938 -27.5625 22.859375 -25.976562 21.890625 -24.34375 C 20.921875 -22.707031 20.3125 -20.867188 20.0625 -18.828125 C 19.851562 -17.296875 19.59375 -15.789062 19.28125 -14.3125 C 18.976562 -12.832031 18.597656 -11.378906 18.140625 -9.953125 C 17.734375 -8.628906 17.046875 -7.59375 16.078125 -6.84375 C 15.109375 -6.101562 13.910156 -5.734375 12.484375 -5.734375 C 11.097656 -5.785156 9.921875 -6.179688 8.953125 -6.921875 C 7.984375 -7.660156 7.347656 -8.644531 7.046875 -9.875 C 6.535156 -11.863281 6.070312 -13.851562 5.65625 -15.84375 C 5.25 -17.832031 4.945312 -19.847656 4.75 -21.890625 C 4.34375 -26.847656 4 -31.828125 3.71875 -36.828125 C 3.4375 -41.828125 3.140625 -46.800781 2.828125 -51.75 C 2.773438 -52.71875 2.828125 -53.675781 2.984375 -54.625 C 3.140625 -55.570312 3.289062 -56.53125 3.4375 -57.5 C 3.75 -59.03125 4.347656 -60.226562 5.234375 -61.09375 C 6.128906 -61.957031 7.164062 -62.390625 8.34375 -62.390625 C 9.519531 -62.390625 10.566406 -62.003906 11.484375 -61.234375 C 12.398438 -60.472656 13.035156 -59.351562 13.390625 -57.875 C 14.054688 -55.019531 14.65625 -52.160156 15.1875 -49.296875 C 15.726562 -46.441406 16.304688 -43.585938 16.921875 -40.734375 C 17.023438 -40.066406 17.148438 -39.390625 17.296875 -38.703125 C 17.453125 -38.015625 17.632812 -37.3125 17.84375 -36.59375 C 18.40625 -36.695312 18.6875 -36.75 18.6875 -36.75 C 22.664062 -38.945312 26.171875 -39.570312 29.203125 -38.625 C 32.242188 -37.675781 34.679688 -35.132812 36.515625 -31 C 37.285156 -29.21875 37.910156 -27.367188 38.390625 -25.453125 C 38.878906 -23.535156 39.273438 -21.632812 39.578125 -19.75 Z M 39.578125 -19.75 "/></g></g></g><g fill="#25242a" fill-opacity="1"><g transform="translate(88.682554, 187.682525)"><g><path d="M 39.359375 -15.3125 C 39.867188 -13.007812 39.890625 -11.082031 39.421875 -9.53125 C 38.960938 -7.976562 37.992188 -6.894531 36.515625 -6.28125 C 34.929688 -5.613281 33.375 -5.625 31.84375 -6.3125 C 30.3125 -7 28.882812 -8.316406 27.5625 -10.265625 C 27.457031 -10.410156 27.328125 -10.570312 27.171875 -10.75 C 27.023438 -10.9375 26.875 -11.15625 26.71875 -11.40625 C 26.3125 -11.15625 25.941406 -10.890625 25.609375 -10.609375 C 25.273438 -10.328125 24.90625 -10.082031 24.5 -9.875 C 23.425781 -9.363281 22.351562 -8.8125 21.28125 -8.21875 C 20.207031 -7.632812 19.085938 -7.21875 17.921875 -6.96875 C 15.054688 -6.25 12.4375 -6.375 10.0625 -7.34375 C 7.6875 -8.3125 5.835938 -9.894531 4.515625 -12.09375 C 3.191406 -14.289062 2.65625 -16.867188 2.90625 -19.828125 C 3.0625 -22.222656 3.6875 -24.566406 4.78125 -26.859375 C 5.882812 -29.160156 7.289062 -31.296875 9 -33.265625 C 10.707031 -35.234375 12.628906 -36.878906 14.765625 -38.203125 C 16.910156 -39.523438 19.109375 -40.367188 21.359375 -40.734375 C 23.910156 -41.191406 26.21875 -40.921875 28.28125 -39.921875 C 30.351562 -38.929688 32.332031 -37.722656 34.21875 -36.296875 C 34.832031 -35.828125 35.28125 -35.109375 35.5625 -34.140625 C 35.84375 -33.171875 36.0625 -32.253906 36.21875 -31.390625 C 36.820312 -28.734375 37.351562 -26.050781 37.8125 -23.34375 C 38.28125 -20.644531 38.796875 -17.96875 39.359375 -15.3125 Z M 17.21875 -18.0625 C 19.570312 -18.988281 21.359375 -20.703125 22.578125 -23.203125 C 23.804688 -25.703125 24.164062 -28.40625 23.65625 -31.3125 C 21.101562 -30.289062 19.097656 -28.847656 17.640625 -26.984375 C 16.191406 -25.117188 15.03125 -22.988281 14.15625 -20.59375 C 14.0625 -20.238281 14.015625 -19.753906 14.015625 -19.140625 C 14.015625 -18.523438 14.113281 -18.164062 14.3125 -18.0625 C 14.71875 -17.863281 15.1875 -17.765625 15.71875 -17.765625 C 16.257812 -17.765625 16.757812 -17.863281 17.21875 -18.0625 Z M 17.21875 -18.0625 "/></g></g></g><g fill="#25242a" fill-opacity="1"><g transform="translate(131.329141, 187.682525)"><g><path d="M 34.375 -30.390625 C 34.582031 -29.679688 34.617188 -28.851562 34.484375 -27.90625 C 34.359375 -26.957031 34.066406 -26.226562 33.609375 -25.71875 C 33.203125 -25.207031 32.550781 -24.863281 31.65625 -24.6875 C 30.757812 -24.507812 29.929688 -24.445312 29.171875 -24.5 C 28.398438 -24.550781 27.628906 -24.765625 26.859375 -25.140625 C 26.097656 -25.523438 25.363281 -25.898438 24.65625 -26.265625 C 23.632812 -26.773438 22.738281 -26.914062 21.96875 -26.6875 C 21.207031 -26.457031 20.671875 -25.851562 20.359375 -24.875 C 19.085938 -21.351562 18.039062 -17.734375 17.21875 -14.015625 C 17.019531 -13.191406 16.984375 -12.332031 17.109375 -11.4375 C 17.234375 -10.550781 17.25 -9.671875 17.15625 -8.796875 C 17 -6.910156 16.296875 -5.367188 15.046875 -4.171875 C 13.796875 -2.972656 12.300781 -2.320312 10.5625 -2.21875 C 8.78125 -2.113281 7.222656 -2.582031 5.890625 -3.625 C 4.566406 -4.675781 3.675781 -6.125 3.21875 -7.96875 C 3.113281 -8.425781 3.019531 -8.882812 2.9375 -9.34375 C 2.863281 -9.800781 2.828125 -10.285156 2.828125 -10.796875 C 2.878906 -15.335938 2.914062 -19.890625 2.9375 -24.453125 C 2.96875 -29.023438 3.007812 -33.582031 3.0625 -38.125 C 3.0625 -38.582031 3.085938 -39.078125 3.140625 -39.609375 C 3.191406 -40.148438 3.367188 -40.578125 3.671875 -40.890625 C 4.179688 -41.492188 4.753906 -42.140625 5.390625 -42.828125 C 6.035156 -43.523438 6.6875 -43.898438 7.34375 -43.953125 C 8.007812 -43.992188 8.738281 -43.769531 9.53125 -43.28125 C 10.320312 -42.800781 11 -42.257812 11.5625 -41.65625 C 12.019531 -41.144531 12.363281 -40.492188 12.59375 -39.703125 C 12.820312 -38.910156 13.085938 -38.101562 13.390625 -37.28125 C 18.296875 -39.9375 23.144531 -40.039062 27.9375 -37.59375 C 29.519531 -36.820312 30.875 -35.847656 32 -34.671875 C 33.125 -33.503906 33.914062 -32.078125 34.375 -30.390625 Z M 34.375 -30.390625 "/></g></g></g><g fill="#25242a" fill-opacity="1"><g transform="translate(168.76932, 187.682525)"><g><path d="M 33 -37.0625 C 34.9375 -35.0625 36.054688 -32.898438 36.359375 -30.578125 C 36.671875 -28.265625 36.210938 -26.125 34.984375 -24.15625 C 33.765625 -22.1875 31.851562 -20.742188 29.25 -19.828125 C 27.15625 -19.109375 24.972656 -18.609375 22.703125 -18.328125 C 20.429688 -18.054688 18.09375 -17.6875 15.6875 -17.21875 C 16.40625 -17.019531 17.09375 -16.804688 17.75 -16.578125 C 18.414062 -16.347656 19.082031 -16.179688 19.75 -16.078125 C 21.082031 -15.816406 22.421875 -15.625 23.765625 -15.5 C 25.117188 -15.375 26.4375 -15.109375 27.71875 -14.703125 C 29.550781 -14.085938 30.660156 -13.050781 31.046875 -11.59375 C 31.429688 -10.144531 30.929688 -8.726562 29.546875 -7.34375 C 28.835938 -6.582031 27.945312 -5.90625 26.875 -5.3125 C 25.800781 -4.726562 24.753906 -4.382812 23.734375 -4.28125 C 19.035156 -3.820312 15.078125 -4.421875 11.859375 -6.078125 C 8.648438 -7.742188 6.28125 -10.109375 4.75 -13.171875 C 3.21875 -16.234375 2.601562 -19.648438 2.90625 -23.421875 C 3.113281 -25.773438 3.519531 -28.035156 4.125 -30.203125 C 4.738281 -32.367188 5.710938 -34.445312 7.046875 -36.4375 C 8.722656 -39.039062 10.890625 -40.914062 13.546875 -42.0625 C 16.203125 -43.21875 19.0625 -43.488281 22.125 -42.875 C 26.46875 -42.101562 30.09375 -40.164062 33 -37.0625 Z M 26.265625 -29.703125 C 26.359375 -29.703125 26.46875 -29.738281 26.59375 -29.8125 C 26.726562 -29.894531 26.898438 -29.988281 27.109375 -30.09375 C 26.128906 -31.46875 24.910156 -32.445312 23.453125 -33.03125 C 22.003906 -33.625 20.644531 -33.738281 19.375 -33.375 C 18.195312 -33.019531 17.328125 -32.421875 16.765625 -31.578125 C 16.203125 -30.734375 15.769531 -29.726562 15.46875 -28.5625 C 17.351562 -28.757812 19.1875 -28.945312 20.96875 -29.125 C 22.757812 -29.3125 24.523438 -29.503906 26.265625 -29.703125 Z M 26.265625 -29.703125 "/></g></g></g><g fill="#25242a" fill-opacity="1"><g transform="translate(208.12362, 187.682525)"><g/></g></g><g fill="#25242a" fill-opacity="1"><g transform="translate(230.097712, 187.682525)"><g><path d="M 48.609375 -21.75 C 49.023438 -16.894531 47.625 -12.578125 44.40625 -8.796875 C 43.082031 -7.171875 41.78125 -6.023438 40.5 -5.359375 C 30.34375 0.203125 20.671875 1.425781 11.484375 -1.6875 C 9.597656 -2.34375 7.679688 -3.488281 5.734375 -5.125 C 4.054688 -6.507812 3.546875 -8.453125 4.203125 -10.953125 C 4.617188 -12.578125 4.851562 -14.285156 4.90625 -16.078125 C 4.945312 -19.242188 4.992188 -22.394531 5.046875 -25.53125 C 5.097656 -28.664062 5.148438 -31.789062 5.203125 -34.90625 C 5.253906 -37.40625 5.289062 -39.921875 5.3125 -42.453125 C 5.34375 -44.984375 5.382812 -47.5 5.4375 -50 L 5.4375 -50.296875 C 5.488281 -50.859375 5.445312 -51.457031 5.3125 -52.09375 C 5.1875 -52.738281 4.664062 -53.34375 3.75 -53.90625 C 3.238281 -54.207031 2.929688 -54.640625 2.828125 -55.203125 C 2.773438 -55.867188 3.003906 -56.457031 3.515625 -56.96875 L 4.203125 -57.65625 C 5.078125 -58.46875 5.984375 -59.296875 6.921875 -60.140625 C 7.867188 -60.984375 8.851562 -61.53125 9.875 -61.78125 C 15.789062 -63.3125 21.535156 -64.179688 27.109375 -64.390625 C 27.410156 -64.441406 27.738281 -64.46875 28.09375 -64.46875 C 34.882812 -64.46875 39.707031 -61.457031 42.5625 -55.4375 C 45.164062 -50.019531 44.375 -45.117188 40.1875 -40.734375 C 39.988281 -40.523438 39.757812 -40.316406 39.5 -40.109375 C 39.25 -39.910156 38.96875 -39.707031 38.65625 -39.5 C 38.507812 -39.40625 38.359375 -39.289062 38.203125 -39.15625 C 38.046875 -39.03125 37.894531 -38.914062 37.75 -38.8125 L 36.828125 -38.125 L 37.75 -37.515625 C 38.050781 -37.253906 38.34375 -37.019531 38.625 -36.8125 C 38.90625 -36.613281 39.171875 -36.414062 39.421875 -36.21875 C 39.929688 -35.800781 40.40625 -35.425781 40.84375 -35.09375 C 41.28125 -34.769531 41.703125 -34.425781 42.109375 -34.0625 C 45.984375 -30.800781 48.148438 -26.695312 48.609375 -21.75 Z M 16.3125 -42.484375 L 16.3125 -41.5 L 17.296875 -41.71875 C 17.804688 -41.820312 18.28125 -41.9375 18.71875 -42.0625 C 19.15625 -42.195312 19.601562 -42.316406 20.0625 -42.421875 C 21.082031 -42.617188 22.078125 -42.84375 23.046875 -43.09375 C 24.015625 -43.351562 24.957031 -43.660156 25.875 -44.015625 C 27.351562 -44.578125 28.425781 -45.140625 29.09375 -45.703125 C 29.757812 -46.265625 30.269531 -46.75 30.625 -47.15625 L 31 -47.703125 C 31.3125 -48.265625 31.609375 -48.898438 31.890625 -49.609375 C 32.171875 -50.328125 32.179688 -51.066406 31.921875 -51.828125 C 31.671875 -52.597656 31.085938 -53.210938 30.171875 -53.671875 C 29.191406 -54.128906 27.785156 -54.484375 25.953125 -54.734375 C 25.085938 -54.785156 24.242188 -54.796875 23.421875 -54.765625 C 22.609375 -54.742188 21.640625 -54.601562 20.515625 -54.34375 C 19.390625 -54.09375 17.960938 -53.664062 16.234375 -53.0625 L 15.625 -52.828125 L 15.625 -52.21875 C 15.664062 -51.09375 15.722656 -50.160156 15.796875 -49.421875 C 15.878906 -48.679688 15.945312 -47.976562 16 -47.3125 C 16.050781 -46.644531 16.101562 -45.953125 16.15625 -45.234375 C 16.207031 -44.523438 16.257812 -43.609375 16.3125 -42.484375 Z M 36.90625 -20.0625 C 37.257812 -22.5625 36.3125 -24.859375 34.0625 -26.953125 C 32.632812 -28.328125 31.117188 -29.269531 29.515625 -29.78125 C 27.910156 -30.289062 26.289062 -30.546875 24.65625 -30.546875 C 23.019531 -30.546875 21.382812 -30.46875 19.75 -30.3125 L 18.21875 -30.234375 C 17.707031 -30.191406 17.296875 -29.863281 16.984375 -29.25 C 16.679688 -28.632812 16.503906 -28.148438 16.453125 -27.796875 C 16.453125 -27.023438 16.453125 -26.242188 16.453125 -25.453125 C 16.453125 -24.660156 16.453125 -23.882812 16.453125 -23.125 L 16.453125 -21.4375 L 16.53125 -20.59375 C 16.53125 -20.382812 16.53125 -20.203125 16.53125 -20.046875 C 16.53125 -19.898438 16.53125 -19.75 16.53125 -19.59375 C 16.53125 -18.882812 16.53125 -18.179688 16.53125 -17.484375 C 16.53125 -16.796875 16.503906 -16.097656 16.453125 -15.390625 C 16.359375 -13.398438 17.332031 -12.300781 19.375 -12.09375 C 20.03125 -12.039062 20.664062 -12.015625 21.28125 -12.015625 C 25.113281 -12.015625 28.941406 -12.960938 32.765625 -14.859375 C 35.160156 -16.023438 36.539062 -17.757812 36.90625 -20.0625 Z M 36.90625 -20.0625 "/></g></g></g><g fill="#25242a" fill-opacity="1"><g transform="translate(281.625828, 187.682525)"><g><path d="M 14.234375 -32.6875 C 14.234375 -31.820312 14.234375 -30.554688 14.234375 -28.890625 C 14.234375 -27.234375 14.21875 -25.460938 14.1875 -23.578125 C 14.164062 -21.691406 14.144531 -19.984375 14.125 -18.453125 C 14.101562 -16.921875 14.09375 -15.847656 14.09375 -15.234375 C 14.039062 -14.472656 13.972656 -13.707031 13.890625 -12.9375 C 13.816406 -12.175781 13.703125 -11.410156 13.546875 -10.640625 C 13.191406 -8.597656 12.476562 -7.023438 11.40625 -5.921875 C 10.332031 -4.828125 9.109375 -4.332031 7.734375 -4.4375 C 6.359375 -4.539062 5.160156 -5.175781 4.140625 -6.34375 C 3.117188 -7.519531 2.707031 -9.101562 2.90625 -11.09375 C 3.21875 -14.875 3.675781 -18.640625 4.28125 -22.390625 C 4.894531 -26.140625 5.535156 -29.90625 6.203125 -33.6875 C 6.398438 -34.707031 6.894531 -35.523438 7.6875 -36.140625 C 8.476562 -36.753906 9.460938 -36.984375 10.640625 -36.828125 C 11.816406 -36.722656 12.695312 -36.273438 13.28125 -35.484375 C 13.863281 -34.691406 14.179688 -33.757812 14.234375 -32.6875 Z M 8.5 -43.40625 C 7.269531 -43.457031 6.234375 -43.953125 5.390625 -44.890625 C 4.554688 -45.835938 4.140625 -46.976562 4.140625 -48.3125 C 4.140625 -49.632812 4.597656 -50.769531 5.515625 -51.71875 C 6.429688 -52.664062 7.550781 -53.140625 8.875 -53.140625 C 10.15625 -53.140625 11.238281 -52.691406 12.125 -51.796875 C 13.019531 -50.898438 13.441406 -49.789062 13.390625 -48.46875 C 13.390625 -47.082031 12.890625 -45.878906 11.890625 -44.859375 C 10.898438 -43.835938 9.769531 -43.351562 8.5 -43.40625 Z M 8.5 -43.40625 "/></g></g></g><g fill="#25242a" fill-opacity="1"><g transform="translate(298.776359, 187.682525)"><g><path d="M 32 -13.328125 C 32.40625 -12.148438 32.429688 -11.078125 32.078125 -10.109375 C 31.722656 -9.140625 31.109375 -8.242188 30.234375 -7.421875 C 28.960938 -6.253906 27.359375 -5.460938 25.421875 -5.046875 C 23.484375 -4.640625 21.492188 -4.601562 19.453125 -4.9375 C 17.410156 -5.269531 15.644531 -6.023438 14.15625 -7.203125 C 10.582031 -9.898438 8.566406 -13.492188 8.109375 -17.984375 C 7.910156 -19.515625 7.785156 -21.070312 7.734375 -22.65625 C 7.679688 -24.238281 7.628906 -25.796875 7.578125 -27.328125 C 7.578125 -28.097656 7.460938 -28.722656 7.234375 -29.203125 C 7.003906 -29.691406 6.53125 -30.0625 5.8125 -30.3125 C 4.789062 -30.726562 3.988281 -31.316406 3.40625 -32.078125 C 2.820312 -32.847656 2.679688 -33.742188 2.984375 -34.765625 C 3.242188 -35.523438 3.691406 -36.273438 4.328125 -37.015625 C 4.960938 -37.753906 5.640625 -38.253906 6.359375 -38.515625 C 7.273438 -38.921875 7.972656 -39.378906 8.453125 -39.890625 C 8.941406 -40.398438 9.210938 -41.164062 9.265625 -42.1875 C 9.316406 -43.101562 9.429688 -44.007812 9.609375 -44.90625 C 9.785156 -45.800781 9.953125 -46.707031 10.109375 -47.625 C 10.671875 -50.738281 12.019531 -52.269531 14.15625 -52.21875 C 16.351562 -52.164062 17.679688 -50.582031 18.140625 -47.46875 C 18.296875 -46.394531 18.382812 -45.304688 18.40625 -44.203125 C 18.4375 -43.109375 18.453125 -42.023438 18.453125 -40.953125 C 18.453125 -39.523438 19.164062 -38.785156 20.59375 -38.734375 C 21.507812 -38.679688 22.425781 -38.617188 23.34375 -38.546875 C 24.269531 -38.472656 25.164062 -38.332031 26.03125 -38.125 C 27.457031 -37.769531 28.550781 -37.039062 29.3125 -35.9375 C 30.082031 -34.84375 30.414062 -33.660156 30.3125 -32.390625 C 30.21875 -31.054688 29.679688 -29.914062 28.703125 -28.96875 C 27.734375 -28.03125 26.535156 -27.507812 25.109375 -27.40625 C 24.085938 -27.300781 23.023438 -27.257812 21.921875 -27.28125 C 20.828125 -27.3125 19.566406 -27.328125 18.140625 -27.328125 C 18.347656 -25.796875 18.523438 -24.25 18.671875 -22.6875 C 18.828125 -21.132812 19.035156 -19.59375 19.296875 -18.0625 C 19.492188 -17.144531 19.9375 -16.484375 20.625 -16.078125 C 21.320312 -15.671875 22.128906 -15.519531 23.046875 -15.625 C 23.660156 -15.71875 24.257812 -15.828125 24.84375 -15.953125 C 25.425781 -16.085938 26.023438 -16.179688 26.640625 -16.234375 C 27.816406 -16.335938 28.875 -16.171875 29.8125 -15.734375 C 30.757812 -15.296875 31.488281 -14.492188 32 -13.328125 Z M 32 -13.328125 "/></g></g></g><g fill="#25242a" fill-opacity="1"><g transform="translate(333.99619, 187.682525)"><g><path d="M 33 -37.0625 C 34.9375 -35.0625 36.054688 -32.898438 36.359375 -30.578125 C 36.671875 -28.265625 36.210938 -26.125 34.984375 -24.15625 C 33.765625 -22.1875 31.851562 -20.742188 29.25 -19.828125 C 27.15625 -19.109375 24.972656 -18.609375 22.703125 -18.328125 C 20.429688 -18.054688 18.09375 -17.6875 15.6875 -17.21875 C 16.40625 -17.019531 17.09375 -16.804688 17.75 -16.578125 C 18.414062 -16.347656 19.082031 -16.179688 19.75 -16.078125 C 21.082031 -15.816406 22.421875 -15.625 23.765625 -15.5 C 25.117188 -15.375 26.4375 -15.109375 27.71875 -14.703125 C 29.550781 -14.085938 30.660156 -13.050781 31.046875 -11.59375 C 31.429688 -10.144531 30.929688 -8.726562 29.546875 -7.34375 C 28.835938 -6.582031 27.945312 -5.90625 26.875 -5.3125 C 25.800781 -4.726562 24.753906 -4.382812 23.734375 -4.28125 C 19.035156 -3.820312 15.078125 -4.421875 11.859375 -6.078125 C 8.648438 -7.742188 6.28125 -10.109375 4.75 -13.171875 C 3.21875 -16.234375 2.601562 -19.648438 2.90625 -23.421875 C 3.113281 -25.773438 3.519531 -28.035156 4.125 -30.203125 C 4.738281 -32.367188 5.710938 -34.445312 7.046875 -36.4375 C 8.722656 -39.039062 10.890625 -40.914062 13.546875 -42.0625 C 16.203125 -43.21875 19.0625 -43.488281 22.125 -42.875 C 26.46875 -42.101562 30.09375 -40.164062 33 -37.0625 Z M 26.265625 -29.703125 C 26.359375 -29.703125 26.46875 -29.738281 26.59375 -29.8125 C 26.726562 -29.894531 26.898438 -29.988281 27.109375 -30.09375 C 26.128906 -31.46875 24.910156 -32.445312 23.453125 -33.03125 C 22.003906 -33.625 20.644531 -33.738281 19.375 -33.375 C 18.195312 -33.019531 17.328125 -32.421875 16.765625 -31.578125 C 16.203125 -30.734375 15.769531 -29.726562 15.46875 -28.5625 C 17.351562 -28.757812 19.1875 -28.945312 20.96875 -29.125 C 22.757812 -29.3125 24.523438 -29.503906 26.265625 -29.703125 Z M 26.265625 -29.703125 "/></g></g></g></svg>